<?xml version="1.0" encoding="utf-8"?>
<!-- Generator: Adobe Illustrator 27.1.0, SVG Export Plug-In . SVG Version: 6.00 Build 0)  -->
<svg version="1.1" id="Layer_1" xmlns="http://www.w3.org/2000/svg" xmlns:xlink="http://www.w3.org/1999/xlink" x="0px" y="0px"
	 viewBox="0 0 800.9 500.1" style="enable-background:new 0 0 800.9 500.1;" xml:space="preserve">
<style type="text/css">
	.st0{fill:#373F4F;}
	.st1{fill:#41BDD7;}
	.st2{enable-background:new    ;}
	.st3{fill:#9F6449;}
	.st4{fill:#363E4E;}
</style>
<g>
	<g>
		<path class="st0" d="M326.2,242c2.3-2.4,4.8-3.6,7.6-3.6c1.7,0,3.1,0.5,4,1.4c0.9,1,1.3,2.3,1.3,4v17.9h5.1v-18.7
			c0-2.7-0.8-4.9-2.4-6.5c-1.6-1.6-3.8-2.3-6.5-2.3c-2,0-3.6,0.4-5.1,1.1c-1.4,0.7-2.9,1.7-4.3,3.1l-0.7-3.8h-4v27.1h5.1V242
			L326.2,242z"/>
		<path class="st0" d="M373,242c-0.7-1.7-1.6-3.1-2.7-4.3c-1.2-1.2-2.5-2-4.1-2.6c-1.6-0.6-3.3-0.9-5.2-0.9c-1.9,0-3.6,0.3-5.3,0.9
			c-1.6,0.7-3,1.6-4.3,2.7c-1.2,1.2-2.2,2.7-2.8,4.5c-0.7,1.7-1,3.8-1,6.1c0,2.2,0.4,4.2,1,5.9c0.7,1.7,1.6,3.2,2.7,4.3
			s2.5,2,4.1,2.7c1.6,0.6,3.3,0.9,5.2,0.9c1.9,0,3.6-0.3,5.3-0.9c1.6-0.7,3-1.6,4.3-2.8c1.2-1.2,2.2-2.7,2.8-4.6
			c0.7-1.8,1-3.8,1-6.1C374,245.6,373.7,243.7,373,242z M368,253.1c-0.4,1.3-1,2.3-1.7,3.1c-0.7,0.8-1.6,1.4-2.5,1.7
			c-0.9,0.4-2,0.5-3,0.5c-1,0-2-0.2-3-0.6c-0.9-0.4-1.8-1-2.6-1.8c-0.7-0.8-1.4-1.9-1.8-3.1c-0.4-1.3-0.7-2.8-0.7-4.6
			c0-2,0.2-3.6,0.7-4.8c0.4-1.3,1-2.3,1.7-3.1s1.6-1.3,2.5-1.6c0.9-0.3,2-0.4,3-0.4c1,0,2,0.2,3,0.6c0.9,0.4,1.8,0.9,2.6,1.7
			c0.7,0.8,1.4,1.9,1.8,3.1c0.4,1.3,0.7,2.8,0.7,4.6C368.7,250.1,368.5,251.8,368,253.1z"/>
		<path class="st0" d="M393.6,261.4c1.6-0.6,3-1.4,4.3-2.7c1.2-1.2,2.2-2.7,3-4.6c0.7-1.9,1.2-4.1,1.2-6.6c0-4.3-1-7.6-3.1-9.9
			c-2.1-2.3-4.9-3.5-8.5-3.5c-1.7,0-3.3,0.4-4.6,1c-1.3,0.7-2.5,1.5-3.5,2.5l-0.7-3.5h-4.2v40.7h5v-14.6c0.8,0.6,1.8,1,2.9,1.4
			c1.2,0.4,2.3,0.5,3.5,0.5C390.3,262.3,392,262,393.6,261.4z M394.8,240.9c1.2,1.7,1.8,4,1.8,6.8c0,2-0.2,3.6-0.7,5
			c-0.5,1.4-1.2,2.5-2,3.3c-0.8,0.9-1.7,1.4-2.7,1.8c-1,0.4-2.1,0.6-3.1,0.6c-1,0-2-0.1-3-0.4c-1-0.3-2-0.8-2.8-1.4V242
			c0.7-0.8,1.6-1.6,2.7-2.4c1.2-0.8,2.6-1.2,4.2-1.2C391.8,238.4,393.6,239.2,394.8,240.9z"/>
		<path class="st0" d="M420.5,254.9c-1.3-0.5-2.5-1.2-3.5-2.2c-1-1-1.8-2.3-2.3-3.8c-0.6-1.5-0.9-3.3-0.9-5.4c0-2.2,0.3-4.1,0.9-5.6
			c0.6-1.5,1.4-2.7,2.4-3.7c1-0.9,2.2-1.7,3.5-2.1c1.4-0.4,2.8-0.7,4.3-0.7c1.4,0,2.8,0.2,4,0.6c1.2,0.4,2.2,0.8,3.1,1.3l2-6.4
			c-0.9-0.5-2.2-1-3.8-1.4c-1.6-0.5-3.7-0.7-6.2-0.7c-3,0-5.7,0.4-8.1,1.4c-2.4,0.9-4.4,2.2-6.1,3.8c-1.7,1.7-3,3.6-3.8,5.9
			c-0.9,2.3-1.4,4.9-1.4,7.7c0,2.9,0.5,5.5,1.4,7.8c0.9,2.3,2.2,4.3,4,5.9c1.7,1.7,3.8,2.9,6.1,3.8s5,1.3,7.9,1.3
			c2.5,0,4.6-0.2,6.3-0.7c1.7-0.4,3-0.9,3.7-1.4l-1.7-6.3c-0.8,0.5-1.8,0.9-3,1.2c-1.2,0.3-2.7,0.4-4.4,0.4
			C423.3,255.7,421.9,255.4,420.5,254.9z"/>
		<path class="st0" d="M461.6,241.6c-0.7-1.7-1.7-3.3-3-4.5c-1.3-1.2-2.7-2.1-4.6-2.7c-1.7-0.7-3.6-0.9-5.7-0.9c-2,0-4,0.4-5.7,1
			s-3.3,1.7-4.6,2.9c-1.3,1.3-2.3,2.8-3.1,4.7c-0.7,1.8-1.2,3.9-1.2,6.3c0,2.2,0.4,4.2,1.1,5.9c0.7,1.7,1.7,3.3,3,4.4
			c1.3,1.2,2.7,2.1,4.6,2.7c1.7,0.7,3.6,0.9,5.7,0.9c2,0,4-0.4,5.7-1s3.3-1.7,4.6-2.9c1.3-1.3,2.3-2.8,3.1-4.6
			c0.7-1.8,1.2-3.8,1.2-6.1C462.7,245.4,462.4,243.3,461.6,241.6z M453.5,251.8c-0.3,1-0.7,1.9-1.2,2.5c-0.5,0.7-1.1,1.1-1.8,1.4
			c-0.7,0.3-1.4,0.4-2.1,0.4c-1.5,0-2.8-0.7-4-2c-1.2-1.3-1.7-3.4-1.7-6.1c0-1.6,0.1-3,0.4-4c0.3-1.1,0.7-1.9,1.2-2.5
			c0.5-0.7,1.1-1.1,1.8-1.4c0.7-0.3,1.4-0.4,2.1-0.4s1.4,0.1,2.2,0.4c0.7,0.3,1.3,0.8,1.9,1.4c0.5,0.7,0.9,1.5,1.3,2.6
			c0.3,1.1,0.4,2.3,0.4,3.8C453.9,249.5,453.8,250.8,453.5,251.8z"/>
		<path class="st0" d="M474.3,242.8c0.7-0.9,1.4-1.6,2.5-2.1c1-0.5,2-0.8,2.9-0.8c1,0,1.9,0.4,2.5,1c0.7,0.7,0.9,1.6,0.9,2.7v18h8.5
			v-19.2c0.7-0.9,1.4-1.6,2.5-2c1-0.4,2-0.7,2.9-0.7c1,0,1.9,0.4,2.5,1c0.7,0.7,0.9,1.6,0.9,2.7v18h8.5v-18.7c0-3-0.8-5.4-2.5-7
			c-1.6-1.6-3.9-2.4-6.9-2.4c-1.7,0-3.4,0.4-5,1.2c-1.6,0.8-3,1.8-4.2,3c-1.4-2.8-4.2-4.2-8.1-4.2c-1.8,0-3.5,0.4-4.9,1.1
			c-1.4,0.7-2.8,1.7-4.1,3l-1-3.5h-6.7v27.7h8.5L474.3,242.8L474.3,242.8z"/>
		<path class="st0" d="M520.5,242.8c0.7-0.9,1.4-1.6,2.5-2.1c1-0.5,2-0.8,2.9-0.8c1,0,1.9,0.4,2.5,1c0.7,0.7,0.9,1.6,0.9,2.7v18h8.5
			v-19.2c0.7-0.9,1.4-1.6,2.5-2c1-0.4,2-0.7,2.9-0.7c1,0,1.9,0.4,2.5,1c0.7,0.7,0.9,1.6,0.9,2.7v18h8.5v-18.7c0-3-0.8-5.4-2.5-7
			c-1.6-1.6-3.9-2.4-6.9-2.4c-1.7,0-3.4,0.4-5,1.2c-1.6,0.8-3,1.8-4.2,3c-1.4-2.8-4.2-4.2-8.2-4.2c-1.8,0-3.5,0.4-4.9,1.1
			c-1.4,0.7-2.8,1.7-4.1,3l-1-3.5h-6.7v27.7h8.5L520.5,242.8L520.5,242.8z"/>
		<path class="st0" d="M583.2,246.7c0-4.3-1.2-7.5-3.4-9.8c-2.2-2.3-5.3-3.5-9.1-3.5c-2.1,0-4,0.4-5.7,1.1c-1.7,0.7-3.2,1.7-4.4,3
			c-1.2,1.3-2.2,2.9-2.8,4.7c-0.7,1.8-1,3.8-1,6c0,2.5,0.4,4.6,1.2,6.4c0.8,1.7,2,3.3,3.3,4.4s3,2,4.9,2.5s3.8,0.9,5.9,0.9
			c2.3,0,4.3-0.2,5.9-0.6c1.6-0.4,2.9-0.8,4-1.3l-1.6-5.9c-0.8,0.4-1.8,0.8-3,1.1c-1.2,0.3-2.6,0.4-4.1,0.4c-2.2,0-4.1-0.4-5.6-1.3
			c-1.5-0.9-2.2-2.3-2.2-4.2v-0.2h17.9L583.2,246.7L583.2,246.7z M565.5,244.7c0.1-1.6,0.7-2.9,1.6-3.8c0.9-0.9,2-1.4,3.3-1.4
			c0.7,0,1.4,0.1,1.9,0.4s0.9,0.7,1.3,1.2c0.4,0.5,0.6,1,0.7,1.7c0.1,0.7,0.2,1.2,0.2,1.9L565.5,244.7z"/>
		<path class="st0" d="M593.5,261.7v-13.8c0-2.8,0.6-4.8,1.7-6s2.7-1.7,4.4-1.7c0.9,0,1.7,0.1,2.5,0.3c0.7,0.2,1.2,0.4,1.6,0.7
			l1.4-6.7c-0.4-0.3-1-0.5-1.7-0.7c-0.7-0.2-1.5-0.3-2.3-0.3c-1.1,0-2.1,0.1-3,0.4c-0.9,0.3-1.7,0.7-2.4,1.2
			c-0.7,0.5-1.3,1.1-1.8,1.7c-0.5,0.7-0.9,1.4-1.3,2l-0.9-4.8h-6.7v27.7H593.5z"/>
		<path class="st0" d="M617.7,255.7c-0.9-0.3-1.7-0.8-2.5-1.4c-0.7-0.7-1.3-1.5-1.8-2.6c-0.4-1.1-0.7-2.4-0.7-3.9
			c0-2.7,0.7-4.8,2.1-6.1c1.4-1.4,3.2-2,5.4-2c0.9,0,1.9,0.1,2.8,0.4s1.8,0.7,2.6,1.2l1.8-5.8c-1.4-0.8-2.9-1.3-4.3-1.6
			c-1.4-0.3-2.7-0.4-3.9-0.4c-2.2,0-4.3,0.4-6.1,1.1c-1.9,0.7-3.5,1.7-4.8,3c-1.4,1.3-2.4,2.8-3.1,4.6c-0.7,1.8-1.1,3.8-1.1,5.9
			c0,2.3,0.4,4.4,1.2,6.2c0.8,1.8,1.8,3.3,3.1,4.5c1.3,1.2,2.9,2.1,4.7,2.7c1.8,0.6,3.8,0.9,6,0.9c1.9,0,3.5-0.2,5.1-0.7
			s2.6-0.8,3.3-1.2l-1.6-5.8c-0.5,0.3-1.2,0.6-2.2,0.9c-0.9,0.4-2,0.5-3.3,0.5C619.5,256.1,618.7,256,617.7,255.7z"/>
		<path class="st0" d="M654.3,246.7c0-4.3-1.2-7.5-3.4-9.8c-2.2-2.3-5.3-3.5-9.1-3.5c-2.1,0-4,0.4-5.7,1.1c-1.7,0.7-3.2,1.7-4.4,3
			c-1.2,1.3-2.2,2.9-2.8,4.7c-0.7,1.8-1,3.8-1,6c0,2.5,0.4,4.6,1.2,6.4c0.8,1.7,2,3.3,3.3,4.4s3,2,4.9,2.5c1.9,0.6,3.8,0.9,5.9,0.9
			c2.3,0,4.3-0.2,5.9-0.6c1.6-0.4,2.9-0.8,4-1.3l-1.6-5.9c-0.8,0.4-1.8,0.8-3,1.1c-1.2,0.3-2.6,0.4-4.1,0.4c-2.2,0-4.1-0.4-5.6-1.3
			c-1.5-0.9-2.2-2.3-2.2-4.2v-0.2h17.9L654.3,246.7L654.3,246.7z M636.6,244.7c0.1-1.6,0.7-2.9,1.6-3.8c0.9-0.9,2-1.4,3.3-1.4
			c0.7,0,1.4,0.1,1.9,0.4s0.9,0.7,1.3,1.2c0.4,0.5,0.6,1,0.7,1.7c0.1,0.7,0.2,1.2,0.2,1.9L636.6,244.7z"/>
	</g>
	<path class="st1" d="M272.1,302.1c-9.1,0-16.4-7.2-16.4-16.1c0-9.8,8.5-18.1,18.5-18.1c8.8,0,16.9,7.7,16.9,16.2
		C291.1,293.8,282.3,302.1,272.1,302.1z"/>
	<path class="st1" d="M211.7,288.4c0.1-9.6,8.3-18,17.5-18c6.1,0,11.4,4.1,12.8,10.1c2.5,10.4-6.2,21.6-16.9,21.9
		C217.6,302.5,211.6,296.3,211.7,288.4z"/>
	<path class="st1" d="M289.4,247.5c2.1-5.9,0-11.4-5.2-14.9c-6.5-4.4-16.8-2.5-22.3,4c-2.6,3.1-4.2,6.5-3.8,10.6
		c0.8,7.6,6.9,12.4,15.2,11.8C281.5,258,287.2,253.5,289.4,247.5z"/>
	<path class="st1" d="M229.4,262c-8,0-13.1-6.4-11.4-14.2c1.6-7.4,8.9-13.5,16.5-13.5c8-0.1,13.4,6.5,11.7,14.3
		C244.5,256.1,237.1,262,229.4,262z"/>
	<path class="st1" d="M177.7,289.2c0.7-6.3,4.2-12,11.2-15.1c8.4-3.7,16.6,2.3,15.8,11.5c-0.6,7-4.1,12.3-10.4,15.4
		C185.8,305.2,177.5,299.9,177.7,289.2z"/>
	<path class="st1" d="M279.1,196.2c1.5-0.2,3.9,0.5,6.1,1.8c5,3.1,6.5,8.6,3.7,14.1c-3.3,6.6-12.2,10.7-19.5,9
		c-8-2-11.3-9.8-6.7-16.7C266.3,199,271.5,196.3,279.1,196.2z"/>
	<path class="st1" d="M146.5,289.6c0.2-4.5,3.6-9.8,9.9-13.2c7.2-3.8,14.7,0.9,14.2,8.9c-0.4,6.9-3.8,12.2-9.9,15.5
		C153.3,304.8,146.5,300.6,146.5,289.6z"/>
	<path class="st1" d="M233.2,226.6c-7.2,0-11.6-5.9-9.7-12.7c2.1-7.4,11.4-13,18.6-11.3c5.9,1.4,8.9,6.5,7.2,12.3
		C247.4,221.4,240.2,226.6,233.2,226.6z"/>
	<path class="st1" d="M201.2,239.2c6.1,0,10.2,5.2,9.1,11.5c-1.1,6.6-7,12.3-13.6,13.3c-6,0.9-10.9-3.2-11-9.2
		C185.7,246.9,193.4,239.2,201.2,239.2z"/>
	<path class="st1" d="M191.8,222.9c0.3-8.4,10.3-16.4,18.2-14.6c3.7,0.8,6.4,3.8,6.7,7.6c0.8,8.4-9.8,17.6-18.1,15.7
		C194.3,230.7,191.7,227.3,191.8,222.9z"/>
	<path class="st1" d="M164.3,266.7c-4.8,0-8.1-3.6-8-8.6c0.1-7.3,6.4-14.6,13.6-15.7c5.1-0.8,9.2,2.4,9.7,7.6
		C180.4,257.8,172.3,266.8,164.3,266.7z"/>
	<path class="st1" d="M164.9,227.8c0.1-6.5,6.9-13.5,13.5-13.9c5.1-0.3,8.5,3.5,7.7,8.6c-0.9,5.9-7.1,11.9-13.1,12.5
		C168.2,235.6,164.8,232.5,164.9,227.8z"/>
	<g class="st2">
		<path class="st3" d="M379.7,279.8c0.9-0.1,2-0.1,3.3-0.2c1.3-0.1,2.6-0.1,4-0.1c1.4,0,2.6,0.1,3.8,0.3c1.2,0.2,2.2,0.5,3.1,0.9
			c0.9,0.5,1.5,1.1,2,1.9c0.5,0.8,0.7,1.8,0.7,3c0,1.1-0.3,2.2-1,3.1c-0.7,0.9-1.7,1.6-3,2.1v0.1c0.7,0.2,1.3,0.5,1.8,0.8
			c0.6,0.4,1.1,0.8,1.5,1.3c0.4,0.5,0.8,1.1,1,1.7c0.2,0.6,0.4,1.3,0.4,2.1c0,1.3-0.3,2.4-0.8,3.3c-0.5,0.9-1.3,1.6-2.3,2.2
			c-1,0.5-2.3,0.9-3.8,1.2c-1.5,0.2-3.3,0.4-5.3,0.4c-1.2,0-2.2,0-3.2-0.1c-0.9-0.1-1.7-0.1-2.4-0.2V279.8z M387.7,283.6
			c-0.6,0-1.1,0-1.5,0c-0.4,0-0.8,0-1.2,0.1v5.4h1.9c1.4,0,2.5-0.2,3.1-0.7c0.6-0.5,1-1.2,1-2.1c0-0.9-0.3-1.6-0.9-2
			C389.5,283.8,388.7,283.6,387.7,283.6z M385,293.2v6.3c0.3,0,0.6,0,0.9,0c0.3,0,0.7,0,1.1,0c1.4,0,2.5-0.2,3.3-0.7
			c0.8-0.5,1.2-1.3,1.2-2.5c0-1.1-0.4-1.9-1.2-2.4c-0.8-0.5-1.8-0.7-2.9-0.7H385z"/>
		<path class="st3" d="M417.6,286.6c0,1.5-0.4,2.9-1.2,4c-0.8,1.1-1.8,1.9-3,2.3v0.1l5.2,10.6h-5.9l-4.2-9.3h-2.6v9.3h-5.4v-23.7
			c1-0.1,2.1-0.2,3.3-0.2c1.2-0.1,2.5-0.1,4-0.1c3.3,0,5.8,0.6,7.4,1.7C416.8,282.3,417.6,284.1,417.6,286.6z M405.9,290.2h2.3
			c1.1,0,2.1-0.3,2.8-0.9c0.7-0.6,1.1-1.4,1.1-2.4c0-1.2-0.3-2.1-1-2.5c-0.7-0.5-1.6-0.7-2.7-0.7c-1.1,0-1.9,0-2.5,0.1V290.2z"/>
		<path class="st3" d="M431,303.9c-1.8,0-3.4-0.3-4.7-1c-1.4-0.6-2.5-1.5-3.4-2.6c-0.9-1.1-1.6-2.4-2.1-3.9
			c-0.5-1.5-0.7-3.1-0.7-4.8c0-1.7,0.2-3.4,0.7-4.9c0.5-1.5,1.2-2.8,2.1-4c0.9-1.1,2.1-2,3.4-2.6c1.4-0.6,2.9-1,4.7-1
			c1.8,0,3.4,0.3,4.8,1c1.4,0.7,2.5,1.5,3.4,2.6c0.9,1.1,1.6,2.4,2.1,3.9c0.5,1.5,0.7,3.1,0.7,4.7c0,1.8-0.2,3.5-0.7,5.1
			c-0.5,1.5-1.2,2.8-2.1,3.9c-0.9,1.1-2.1,2-3.4,2.6C434.3,303.6,432.7,303.9,431,303.9z M431,299.5c1.8,0,3.1-0.7,4-2.2
			c0.8-1.4,1.3-3.4,1.3-5.8c0-1.2-0.1-2.2-0.3-3.2c-0.2-1-0.5-1.8-0.9-2.5c-0.4-0.7-1-1.3-1.6-1.6c-0.7-0.4-1.4-0.6-2.4-0.6
			c-0.9,0-1.7,0.2-2.3,0.6c-0.7,0.4-1.2,0.9-1.6,1.6c-0.4,0.7-0.8,1.5-1,2.5c-0.2,1-0.3,2.1-0.3,3.3c0,2.5,0.4,4.4,1.3,5.8
			C427.8,298.8,429.2,299.5,431,299.5z"/>
		<path class="st3" d="M458.6,303.5c-1.2-2.3-2.3-4.3-3.2-5.9c-0.9-1.7-1.7-3.1-2.3-4.4c-0.7-1.3-1.2-2.4-1.7-3.3
			c-0.5-0.9-0.9-1.8-1.3-2.6H450l0.1,6.7v9.6H445v-24h6.3c1.4,2.6,2.8,5.2,4.2,7.8c1.4,2.6,2.7,5.3,3.8,8h0.1l-0.2-6.7v-9.2h5.1v24
			H458.6z"/>
		<path class="st3" d="M484.4,283l-10.1,16v0.1h10.3l-0.3,4.5h-17.1v-3.2l10.3-16.2v-0.1h-9.4l0.2-4.5h16.1V283z"/>
		<path class="st3" d="M502.1,284.1H493v5h8.5l-0.3,4.4H493v5.6h9.8l-0.3,4.5h-15v-24h14.8L502.1,284.1z"/>
	</g>
	<g class="st2">
		<path class="st4" d="M523.7,294.9c0,0-0.2,0-0.5,0c-0.3,0-0.5,0-0.8,0c-0.3,0-0.6,0-0.8,0c-0.3,0-0.4,0-0.5,0v8.7h-5.4v-23.7
			c0.9-0.1,2-0.2,3.1-0.2c1.2-0.1,2.5-0.1,4-0.1c1.3,0,2.5,0.1,3.7,0.3c1.2,0.2,2.3,0.6,3.2,1.2c0.9,0.6,1.7,1.3,2.2,2.3
			c0.6,1,0.8,2.2,0.8,3.7c0,1.3-0.2,2.5-0.7,3.4c-0.4,1-1,1.8-1.8,2.5c-0.8,0.7-1.8,1.2-2.9,1.5
			C526.3,294.7,525.1,294.9,523.7,294.9z M521.1,290.5c0.2,0,0.5,0,0.7,0.1c0.3,0,0.6,0,0.9,0c1.4,0,2.5-0.3,3.4-0.8
			c0.9-0.6,1.3-1.5,1.3-2.7c0-1.2-0.4-2.1-1.1-2.6c-0.7-0.5-1.7-0.7-2.9-0.7c-0.5,0-0.9,0-1.3,0c-0.4,0-0.7,0-1,0.1V290.5z"/>
		<path class="st4" d="M553.3,303.5h-5.9l-1.6-5.7h-6.5c-0.1,0.4-0.2,0.8-0.3,1.3c-0.1,0.5-0.3,1-0.4,1.5c-0.1,0.5-0.3,1-0.4,1.5
			c-0.1,0.5-0.3,0.9-0.4,1.3H532l7.1-24h7.1L553.3,303.5z M542.4,284l-0.6,2.5l-1.7,7.2h4.7l-1.8-7.2L542.4,284L542.4,284z"/>
		<path class="st4" d="M572.7,286.6c0,1.5-0.4,2.9-1.2,4c-0.8,1.1-1.8,1.9-3,2.3v0.1l5.2,10.6h-5.9l-4.2-9.3H561v9.3h-5.4v-23.7
			c1-0.1,2.1-0.2,3.3-0.2c1.2-0.1,2.5-0.1,4-0.1c3.3,0,5.8,0.6,7.4,1.7C571.9,282.3,572.7,284.1,572.7,286.6z M561,290.2h2.3
			c1.1,0,2.1-0.3,2.8-0.9c0.7-0.6,1.1-1.4,1.1-2.4c0-1.2-0.3-2.1-1-2.5c-0.7-0.5-1.6-0.7-2.7-0.7c-1.1,0-1.9,0-2.5,0.1V290.2z"/>
		<path class="st4" d="M574.4,284.1l0.2-4.6H592l-0.2,4.6h-5.8v19.4h-5.4v-19.4H574.4z"/>
		<path class="st4" d="M608,303.5c-1.2-2.3-2.3-4.3-3.2-5.9c-0.9-1.7-1.7-3.1-2.3-4.4c-0.7-1.3-1.2-2.4-1.7-3.3
			c-0.5-0.9-0.9-1.8-1.3-2.6h-0.1l0.1,6.7v9.6h-5.1v-24h6.3c1.4,2.6,2.8,5.2,4.2,7.8c1.4,2.6,2.7,5.3,3.8,8h0.1l-0.2-6.7v-9.2h5.1
			v24H608z"/>
		<path class="st4" d="M632.4,284.1h-9.1v5h8.5l-0.3,4.4h-8.3v5.6h9.8l-0.3,4.5h-15v-24h14.8L632.4,284.1z"/>
		<path class="st4" d="M653.4,286.6c0,1.5-0.4,2.9-1.2,4c-0.8,1.1-1.8,1.9-3,2.3v0.1l5.2,10.6h-5.9l-4.2-9.3h-2.6v9.3h-5.4v-23.7
			c1-0.1,2.1-0.2,3.3-0.2c1.2-0.1,2.5-0.1,4-0.1c3.3,0,5.8,0.6,7.4,1.7C652.6,282.3,653.4,284.1,653.4,286.6z M641.7,290.2h2.3
			c1.1,0,2.1-0.3,2.8-0.9c0.7-0.6,1.1-1.4,1.1-2.4c0-1.2-0.3-2.1-1-2.5c-0.7-0.5-1.6-0.7-2.7-0.7c-1.1,0-1.9,0-2.5,0.1V290.2z"/>
	</g>
</g>
</svg>
