<?xml version="1.0" encoding="UTF-8"?>
<svg id="Layer_2" data-name="Layer 2" xmlns="http://www.w3.org/2000/svg" viewBox="0 0 1622.19 172.18">
  <defs>
    <style>
      .cls-1 {
        fill: #319bd6;
      }

      .cls-2 {
        fill: #f1602c;
      }

      .cls-3 {
        fill: #fdb72b;
      }

      .cls-4 {
        fill: #77c043;
      }
    </style>
  </defs>
  <g id="Layer_1-2" data-name="Layer 1">
    <g>
      <path d="m400.92,157.37h-15.63V63.9c0-7.38.43-16.37,1.3-26.98h-.37c-1.49,6.28-2.82,10.77-4,13.49l-45.5,106.96h-7.63l-45.59-106.18c-1.24-2.84-2.58-7.6-4-14.27h-.37c.49,5.57.74,14.63.74,27.18v93.27h-15.07V18.19h20.65l40.94,97.06c3.1,7.38,5.12,12.94,6.05,16.69h.65c3.1-8.93,5.24-14.62,6.42-17.08l41.77-96.67h19.63v139.18"/>
      <path d="m444.35,157.37h-15.26V57.98h15.26v99.39m2.6-135.01c0,2.98-1,5.46-2.98,7.42-1.99,1.98-4.35,2.96-7.07,2.96s-5.15-.95-7.07-2.86c-1.93-1.91-2.88-4.42-2.88-7.52,0-2.78.94-5.19,2.84-7.23,1.89-2.04,4.26-3.06,7.12-3.06s5.24,1.01,7.16,3.01c1.92,2.01,2.88,4.44,2.88,7.28"/>
      <path d="m534.67,152.81c-7.38,4.66-16.1,6.99-26.14,6.99-8.69,0-16.48-2.09-23.4-6.26-6.92-4.17-12.29-10.07-16.14-17.71-3.85-7.63-5.77-16.21-5.77-25.72,0-16.43,4.51-29.63,13.54-39.6,9.02-9.96,21.04-14.95,36.05-14.95,8.31,0,15.66,1.68,22.05,5.05v16.31c-7.13-5.17-14.7-7.76-22.7-7.76-9.86,0-17.88,3.67-24.05,11.02-6.17,7.35-9.26,16.84-9.26,28.49s2.93,20.74,8.79,27.47c5.86,6.73,13.72,10.09,23.58,10.09,8.31,0,16.13-2.84,23.45-8.54v15.14"/>
      <path d="m602.66,74.09c-2.73-2.14-6.61-3.2-11.63-3.2-6.76,0-12.25,3.32-16.47,9.95-4.22,6.63-6.33,15.26-6.33,25.87v50.66h-15.26V57.98h15.26v20.48h.37c2.11-6.86,5.36-12.28,9.77-16.26,4.41-3.98,9.46-5.97,15.16-5.97,3.97,0,7.01.46,9.12,1.36v16.5"/>
      <path d="m682.93,107.87c0-12.49-2.65-22.06-7.95-28.73-5.3-6.66-12.89-10-22.75-10s-17.56,3.42-23.26,10.24c-5.71,6.83-8.56,16.45-8.56,28.87s2.86,21.21,8.61,27.9c5.74,6.7,13.47,10.05,23.21,10.05s17.52-3.3,22.79-9.9c5.27-6.6,7.91-16.08,7.91-28.44m15.63-.58c0,15.79-4.3,28.49-12.89,38.1-8.59,9.61-20.12,14.41-34.56,14.41s-25.33-4.67-33.73-14.02c-8.41-9.35-12.61-21.66-12.61-36.93,0-16.43,4.31-29.42,12.93-38.97,8.62-9.54,20.49-14.32,35.63-14.32,14.14,0,25.21,4.61,33.21,13.83,8,9.22,12,21.86,12,37.9"/>
      <path d="m769.44,130.78c0,8.61-3.18,15.6-9.54,20.96-6.36,5.37-14.81,8.06-25.35,8.06-9,0-16.87-2-23.63-6.02v-17.08c7.5,6.34,15.75,9.51,24.75,9.51,12.09,0,18.14-4.62,18.14-13.88,0-3.75-1.18-6.81-3.54-9.17-2.36-2.36-7.72-5.55-16.1-9.56-8.44-3.75-14.39-7.78-17.86-12.08-3.48-4.3-5.21-10.01-5.21-17.13,0-8.22,3.16-15.07,9.49-20.58,6.33-5.5,14.35-8.25,24.1-8.25,7.5,0,14.29,1.55,20.38,4.66v16.01c-6.21-4.72-13.4-7.09-21.58-7.09-5.02,0-9.07,1.3-12.14,3.88-3.07,2.59-4.6,5.92-4.6,10,0,4.4,1.18,7.79,3.54,10.14,2.35,2.36,7.22,5.16,14.61,8.4,9.05,4.01,15.41,8.22,19.07,12.62,3.65,4.4,5.49,9.93,5.49,16.6"/>
      <path d="m857.9,107.87c0-12.49-2.65-22.06-7.96-28.73-5.3-6.66-12.89-10-22.75-10s-17.56,3.42-23.26,10.24c-5.71,6.83-8.56,16.45-8.56,28.87s2.86,21.21,8.61,27.9c5.74,6.7,13.47,10.05,23.21,10.05s17.52-3.3,22.79-9.9c5.27-6.6,7.91-16.08,7.91-28.44m15.63-.58c0,15.79-4.3,28.49-12.89,38.1-8.59,9.61-20.12,14.41-34.56,14.41s-25.33-4.67-33.73-14.02c-8.41-9.35-12.61-21.66-12.61-36.93,0-16.43,4.31-29.42,12.93-38.97,8.62-9.54,20.49-14.32,35.63-14.32,14.14,0,25.21,4.61,33.21,13.83,8,9.22,12,21.86,12,37.9"/>
      <path d="m936.03,24.21c-2.98-1.75-6.36-2.62-10.14-2.62-10.67,0-16,7.02-16,21.06v15.34h22.33v13.49h-22.33v85.9h-15.26v-85.9h-16.19v-13.49h16.19v-16.11c0-10.09,2.85-18.25,8.56-24.46,5.71-6.21,12.97-9.32,21.77-9.32,4.65,0,8.34.58,11.07,1.75v14.36"/>
      <path d="m991.46,156.4c-3.66,2.14-8.43,3.2-14.32,3.2-16.62,0-24.93-9.77-24.93-29.31v-58.82h-16.38v-13.49h16.38v-24.26l15.26-5.14v29.41h24v13.49h-24v56.1c0,6.67,1.08,11.4,3.25,14.22,2.18,2.81,5.8,4.22,10.89,4.22,3.78,0,7.07-1.07,9.86-3.2v13.59"/>
      <path d="m1113.95,60.6c0-18.44-10.42-27.66-31.26-27.66h-18.33v57.07h16.37c10.73,0,18.95-2.54,24.65-7.62,5.7-5.07,8.56-12.34,8.56-21.79m16.37-.87c0,13.46-4.45,24.31-13.34,32.56-8.91,8.25-20.59,12.37-35.03,12.37h-17.58v52.7h-15.63V18.19h36.66c14.26,0,25.32,3.64,33.17,10.92,7.84,7.28,11.77,17.49,11.77,30.62"/>
      <path d="m1194.69,107.09l-23.07,3.4c-7.88,1.17-13.4,3.13-16.56,5.87-3.16,2.75-4.74,7.2-4.74,13.35,0,4.98,1.7,8.98,5.12,11.99,3.41,3.01,7.78,4.51,13.12,4.51,7.56,0,13.81-2.78,18.75-8.35,4.93-5.56,7.39-12.52,7.39-20.87v-9.9m15.26,50.28h-15.26v-15.53h-.37c-6.64,11.97-16.41,17.96-29.31,17.96-9.18,0-16.54-2.6-22.05-7.81-5.53-5.21-8.28-12.21-8.28-21.01,0-18.5,10.48-29.31,31.45-32.42l28.56-4.17c0-16.82-6.54-25.24-19.63-25.24-11.48,0-21.84,4.05-31.08,12.13v-16.31c2.79-2.2,7.57-4.32,14.33-6.36,6.76-2.04,12.77-3.06,18.05-3.06,22.39,0,33.59,12.4,33.59,37.17v64.64"/>
      <path d="m1283.62,74.09c-2.74-2.14-6.61-3.2-11.63-3.2-6.76,0-12.25,3.32-16.47,9.95-4.22,6.63-6.33,15.26-6.33,25.87v50.66h-15.26V57.98h15.26v20.48h.37c2.11-6.86,5.36-12.28,9.77-16.26,4.41-3.98,9.46-5.97,15.17-5.97,3.97,0,7.01.46,9.12,1.36v16.5"/>
      <path d="m1354.72,156.4c-3.66,2.14-8.44,3.2-14.32,3.2-16.63,0-24.93-9.77-24.93-29.31v-58.82h-16.38v-13.49h16.38v-24.26l15.26-5.14v29.41h24v13.49h-24v56.1c0,6.67,1.08,11.4,3.25,14.22,2.17,2.81,5.8,4.22,10.89,4.22,3.78,0,7.07-1.07,9.86-3.2v13.59"/>
      <path d="m1455.13,157.37h-15.26v-56.68c0-21.03-7.38-31.54-22.14-31.54-7.51,0-13.79,2.96-18.84,8.88-5.06,5.92-7.58,13.48-7.58,22.66v56.68h-15.26V57.98h15.26v16.5h.37c7.13-12.62,17.55-18.93,31.26-18.93,10.48,0,18.46,3.56,23.95,10.68,5.49,7.12,8.23,17.21,8.23,30.28v60.86"/>
      <path d="m1539.31,98.16c-.12-9.19-2.25-16.32-6.37-21.4-4.13-5.07-9.94-7.62-17.45-7.62-7.07,0-13.12,2.66-18.14,7.96-5.02,5.31-8.19,12.33-9.49,21.06h51.45m15.63,13.49h-67.27c.24,11.2,3.08,19.75,8.51,25.67,5.42,5.92,12.94,8.88,22.57,8.88,10.79,0,20.62-3.62,29.49-10.87v14.85c-8.32,6.41-19.35,9.61-33.13,9.61s-24.18-4.58-31.81-13.73c-7.63-9.15-11.45-21.82-11.45-38,0-9.83,1.91-18.81,5.72-26.93,3.81-8.12,9.07-14.41,15.77-18.88,6.7-4.46,14.14-6.7,22.33-6.7,12.34,0,21.97,4.19,28.89,12.57,6.91,8.38,10.37,20.11,10.37,35.18v8.35"/>
      <path d="m1622.19,74.09c-2.74-2.14-6.61-3.2-11.63-3.2-6.76,0-12.25,3.32-16.47,9.95-4.22,6.63-6.33,15.26-6.33,25.87v50.66h-15.26V57.98h15.26v20.48h.37c2.1-6.86,5.36-12.28,9.77-16.26,4.41-3.98,9.46-5.97,15.17-5.97,3.97,0,7.01.46,9.12,1.36v16.5"/>
    </g>
    <g>
      <rect class="cls-2" width="82.73" height="82.73"/>
      <rect class="cls-4" x="90.6" width="82.73" height="82.73"/>
      <rect class="cls-1" y="89.45" width="82.73" height="82.73"/>
      <rect class="cls-3" x="90.6" y="89.45" width="82.73" height="82.73"/>
    </g>
  </g>
</svg>