<?xml version="1.0" encoding="UTF-8"?> <svg xmlns="http://www.w3.org/2000/svg" width="37.008" height="49.332" viewBox="0 0 37.008 49.332"><g id="acidworks.png" transform="translate(0.021 0.007)"><path id="Path_1" data-name="Path 1" d="M50.927,35.767l-10.8,1.3-11.7-2.143c.8-.21,1.613-.37,2.434-.511a49.265,49.265,0,0,1,19.811.439C52.249,35.23,50.927,35.767,50.927,35.767Z" transform="translate(-21.433 -25.334)" fill="#e1fe0f"></path><path id="Path_2" data-name="Path 2" d="M42.809,27.223a22.163,22.163,0,0,0-4.622-1.833,49.846,49.846,0,0,0-19.929-.444,17.807,17.807,0,0,0-6.5,2.183l.153.247h0l.155.247c.109-.067.222-.133.333-.195l3.542.353c.777-.2,1.566-.358,2.363-.493a49.221,49.221,0,0,1,19.811.437C39.691,28.1,44.111,27.869,42.809,27.223Z" transform="translate(-8.875 -18.203)"></path><path id="Path_3" data-name="Path 3" d="M23.207,38.583C33.154,40.522,42.927,40.87,52.539,37V52.87a4.407,4.407,0,0,1-4.489-4.292,10.626,10.626,0,0,0-.18-2.138,3.837,3.837,0,0,0-4.114-2.809A3.749,3.749,0,0,0,40.2,47.083c-.094,1.67-.037,3.35-.042,5.024,0,3.206.022,6.413-.039,9.6a2.4,2.4,0,0,1-2.595,2.326,2.444,2.444,0,0,1-2.341-2.5c0-3.147.027-6.3.03-9.447a3.117,3.117,0,0,0-3.369-3.379H30.663A3.145,3.145,0,0,0,27.21,51.94a1.906,1.906,0,0,1-2.22,1.82A1.845,1.845,0,0,1,23.2,51.982c-.025-4.348-.032-8.7-.044-13.045q.015-.177.047-.353Z" transform="translate(-17.463 -27.879)" fill="#e1ff0f"></path><path id="Path_4" data-name="Path 4" d="M36.953,26.041V18.425c0-3.8,0-7.735.035-11.593a3.636,3.636,0,0,0-2.035-3.589A23.8,23.8,0,0,0,30.061,1.3,52.623,52.623,0,0,0,8.987.831,18.834,18.834,0,0,0,2.123,3.137a3.966,3.966,0,0,0-2.138,3.8L0,41.716a3.1,3.1,0,0,0,1.194,2.568A17.128,17.128,0,0,0,7.3,47.655a36.574,36.574,0,0,0,11.03,1.67,43.516,43.516,0,0,0,9.447-1.085,16.811,16.811,0,0,0,8.194-4.1,3.068,3.068,0,0,0,1.009-2.388C36.95,36.514,36.95,31.189,36.953,26.041Zm-2.395,15a1.847,1.847,0,0,1-.839,1.682A17.926,17.926,0,0,1,26.152,45.9a36.375,36.375,0,0,1-17.584-.6,14.478,14.478,0,0,1-5.7-3.039,1.384,1.384,0,0,1-.419-.888c-.015-2.735,0-5.515,0-8.206V9.543a11.321,11.321,0,0,1,1.32.683,1.162,1.162,0,0,1,.136.622c0,2.242,0,4.521-.017,6.726q0,2.93-.017,5.86a4.05,4.05,0,0,0,3.5,4.346,4.161,4.161,0,0,0,3.206-.74,3.5,3.5,0,0,0,1.549-2.772c0-1.066.377-1.951,1.751-1.951,1.458,0,1.761.915,1.761,1.83,0,1.973.022,3.986.017,5.92v3.046a4.436,4.436,0,0,0,4.526,4.723A4.6,4.6,0,0,0,23.52,36.5a4.82,4.82,0,0,0,1.3-3.406q0-4.035,0-8.073V19.895a2.166,2.166,0,0,1,.567-1.6,1.65,1.65,0,0,1,1.2-.434c1.014.015,1.625.77,1.682,2.069v.2a8.974,8.974,0,0,0,.333,2.467,6.479,6.479,0,0,0,5.92,4.427,3.572,3.572,0,0,1,.042.451c0,1.337,0,2.671-.015,4.008C34.545,34.625,34.533,37.861,34.558,41.045ZM34.493,24.5a3.678,3.678,0,0,1-2.4-.969,4.193,4.193,0,0,1-1.408-2.96c0-.131,0-.264,0-.395a8.1,8.1,0,0,0-.173-1.754,4.021,4.021,0,0,0-4.334-2.96,3.964,3.964,0,0,0-3.747,3.653c-.067,1.167-.057,2.353-.047,3.5V26.89c0,2.146,0,4.363-.039,6.544a1.973,1.973,0,0,1-.626,1.423,2.22,2.22,0,0,1-1.606.567A2.106,2.106,0,0,1,18.1,33.273c0-1.727,0-3.473.015-5.165,0-1.359.015-2.713.015-4.077A3.86,3.86,0,0,0,14.1,19.978c-2.878-.052-4.326,1.63-4.378,3.882C9.7,25.153,8.652,25.4,7.853,25.373A1.51,1.51,0,0,1,6.4,23.92c-.022-3.433-.03-6.926-.037-10.305V11.146c11.284,2.168,20,1.712,28.133-1.463ZM33.941,6.987a15.761,15.761,0,0,1-3.7,1.633A45.321,45.321,0,0,1,16.263,9.972a38.792,38.792,0,0,1-9.972-1.48A14.128,14.128,0,0,1,3.5,7.323c-.7-.4-1.08-.814-1.068-1.162s.4-.693,1.093-1.009a22.327,22.327,0,0,1,5.426-1.81L9.2,3.3a53.509,53.509,0,0,1,8.879-.987c5.769,0,9.094.469,13.174,1.852a12.463,12.463,0,0,1,2.639,1.255c.437.276.671.57.668.826-.007.308-.343.567-.622.733Z"></path></g></svg> 